<svg width="53" height="14" viewBox="0 0 53 14" fill="none" xmlns="http://www.w3.org/2000/svg">
<path d="M9.44236 12.0096L9.39429 13.0673H0.644287V1.24036H9.05775L9.10583 2.34613H1.84621V6.43266H8.09621V7.3942H1.84621V12.0096H9.44236Z" fill="#57AD56" stroke="#57AD56" stroke-width="0.25"/>
<path fill-rule="evenodd" clip-rule="evenodd" d="M16.702 9.99036H23.6731L25.0193 13.0673H26.3654L20.9327 1.24036H19.5385L14.0577 13.0673H15.3558L16.702 9.99036ZM17.1347 8.98074L19.6827 3.25959L20.1635 2.05766H20.2116L20.6924 3.25959L23.1924 8.98074H17.1347Z" fill="#57AD56"/>
<path d="M23.6731 9.99036L23.7876 9.94025L23.7549 9.86536H23.6731V9.99036ZM16.702 9.99036V9.86536H16.6202L16.5875 9.94025L16.702 9.99036ZM25.0193 13.0673L24.9048 13.1174L24.9375 13.1923H25.0193V13.0673ZM26.3654 13.0673V13.1923H26.5604L26.479 13.0151L26.3654 13.0673ZM20.9327 1.24036L21.0463 1.18818L21.0129 1.11536H20.9327V1.24036ZM19.5385 1.24036V1.11536H19.4587L19.4251 1.1878L19.5385 1.24036ZM14.0577 13.0673L13.9443 13.0147L13.862 13.1923H14.0577V13.0673ZM15.3558 13.0673V13.1923H15.4376L15.4703 13.1174L15.3558 13.0673ZM19.6827 3.25959L19.797 3.31048L19.7988 3.30601L19.6827 3.25959ZM17.1347 8.98074L17.0205 8.92989L16.9422 9.10574H17.1347V8.98074ZM20.1635 2.05766V1.93266H20.0789L20.0474 2.01124L20.1635 2.05766ZM20.2116 2.05766L20.3276 2.01124L20.2962 1.93266H20.2116V2.05766ZM20.6924 3.25959L20.5762 3.30603L20.5778 3.30964L20.6924 3.25959ZM23.1924 8.98074V9.10574H23.3834L23.3069 8.93069L23.1924 8.98074ZM23.6731 9.86536H16.702V10.1154H23.6731V9.86536ZM25.1338 13.0172L23.7876 9.94025L23.5586 10.0405L24.9048 13.1174L25.1338 13.0172ZM26.3654 12.9423H25.0193V13.1923H26.3654V12.9423ZM20.8191 1.29253L26.2518 13.1195L26.479 13.0151L21.0463 1.18818L20.8191 1.29253ZM19.5385 1.36536H20.9327V1.11536H19.5385V1.36536ZM14.1712 13.1198L19.6519 1.29291L19.4251 1.1878L13.9443 13.0147L14.1712 13.1198ZM15.3558 12.9423H14.0577V13.1923H15.3558V12.9423ZM16.5875 9.94025L15.2413 13.0172L15.4703 13.1174L16.8165 10.0405L16.5875 9.94025ZM19.5686 3.20873L17.0205 8.92989L17.2488 9.0316L19.7969 3.31044L19.5686 3.20873ZM20.0474 2.01124L19.5667 3.21316L19.7988 3.30601L20.2796 2.10409L20.0474 2.01124ZM20.2116 1.93266H20.1635V2.18266H20.2116V1.93266ZM20.8084 3.21316L20.3276 2.01124L20.0955 2.10409L20.5763 3.30601L20.8084 3.21316ZM23.3069 8.93069L20.8069 3.20954L20.5778 3.30964L23.0778 9.03079L23.3069 8.93069ZM17.1347 9.10574H23.1924V8.85574H17.1347V9.10574Z" fill="#57AD56"/>
<path d="M35.0193 2.34613V13.0673H33.8174V2.34613H29.3943L29.4424 1.24036H39.4904V2.34613H35.0193Z" fill="#57AD56" stroke="#57AD56" stroke-width="0.25"/>
<path d="M48.0481 13.3077C46.4135 13.3077 45.1154 12.9231 44.0577 12.2981L44.25 11.2404C45.3558 11.8654 46.6058 12.25 48.0962 12.25C50.3077 12.25 51.4616 11.2404 51.4616 9.79808C51.4616 6.67308 44.25 8.30769 44.25 4.26923C44.25 2.53846 45.5481 1 48.577 1C49.9712 1 51.2212 1.24038 52.2308 1.72115L52.0385 2.73077C50.9327 2.29808 49.875 2.05769 48.625 2.05769C46.2693 2.05769 45.4039 3.11538 45.4039 4.17308C45.4039 7.15385 52.6154 5.47115 52.6154 9.70192C52.5674 11.8173 51.0289 13.3077 48.0481 13.3077Z" fill="#57AD56" stroke="#57AD56" stroke-width="0.25"/>
</svg>
