<svg width="59" height="13" viewBox="0 0 59 13" fill="none" xmlns="http://www.w3.org/2000/svg">
<path d="M9.42311 0.528818V7.16343C9.42311 9.37497 8.46157 10.2884 6.15387 10.2884C3.84618 10.2884 2.88464 9.37497 2.88464 7.16343V0.240356H0.673105C0.528874 0.240356 0.384644 0.384587 0.384644 0.528818V7.25959C0.384644 10.9615 2.74041 12.2596 6.15387 12.2596C9.56734 12.2596 11.9231 10.9615 11.9231 7.25959V0.240356H9.71157C9.56734 0.240356 9.42311 0.33651 9.42311 0.528818Z" fill="black"/>
<path d="M41.5866 2.16343C41.7789 2.16343 41.8751 2.11536 41.9231 1.97113L42.5481 0.384587C42.5962 0.288433 42.5481 0.240356 42.452 0.240356H33.5097C32.6924 0.240356 32.3558 0.480741 32.3558 1.05766V11.3461C32.3558 11.8269 32.5962 12.0673 33.2212 12.0673H41.5385C41.7308 12.0673 41.827 12.0192 41.8751 11.875L42.5001 10.2884C42.5481 10.1923 42.5001 10.1442 42.4039 10.1442H34.8078V8.02882C34.8078 7.30766 35.1924 6.97113 36.2981 6.97113H39.6155C39.8078 6.97113 39.9039 6.92305 39.952 6.77882L40.577 5.24036C40.6251 5.1442 40.577 5.09613 40.4808 5.09613H34.8558V2.11536H41.5866V2.16343Z" fill="black"/>
<path fill-rule="evenodd" clip-rule="evenodd" d="M25.8654 5.81728C26.827 5.28843 27.2116 4.37497 27.2116 3.22113C27.2116 0.624972 25.0962 0.240356 22.8847 0.240356H17.8366C17.0193 0.240356 16.6827 0.480741 16.6827 1.05766V11.3461C16.6827 11.8269 16.9231 12.0673 17.5481 12.0673H23.75C26.1058 12.0673 27.7404 11.1538 27.7404 8.79805C27.7885 7.35574 27.2116 6.15382 25.8654 5.81728ZM19.1827 2.11536H23.077C24.375 2.11536 24.7597 2.59613 24.7597 3.60574C24.7597 4.61536 24.375 5.09613 23.077 5.09613H19.1827V2.11536ZM19.1827 10.1442H23.5577C24.952 10.1442 25.3366 9.66343 25.3366 8.55766C25.3366 7.4519 24.952 6.92305 23.5577 6.92305H20.6731C19.5674 6.92305 19.1827 7.25959 19.1827 7.98074V10.1442Z" fill="black"/>
<path fill-rule="evenodd" clip-rule="evenodd" d="M55.3846 7.30766L58.0288 11.875C58.0769 11.923 58.0769 12.0673 57.9808 12.0673H55.7212C55.5288 12.0673 55.4808 12.0192 55.3846 11.875L52.9808 7.54805H50.8173C49.7115 7.54805 49.3269 7.88459 49.3269 8.60574V12.0673H47.1635C47.0192 12.0673 46.875 11.923 46.875 11.7788V1.05766C46.875 0.480741 47.2115 0.240356 48.0288 0.240356H53.0769C56.0096 0.240356 57.7885 1.00959 57.7885 3.8942C57.7885 6.10574 56.6827 6.97113 55.3846 7.30766ZM49.2788 5.72113H53.4135C54.9519 5.72113 55.2885 5.1442 55.2885 3.8942C55.2885 2.69228 54.9519 2.11536 53.4135 2.11536H49.2788V5.72113Z" fill="black"/>
</svg>
