<svg width="93" height="20" viewBox="0 0 93 20" fill="none" xmlns="http://www.w3.org/2000/svg">
<path d="M15.0769 0.846152V11.4615C15.0769 15 13.5384 16.4615 9.84613 16.4615C6.15382 16.4615 4.61536 15 4.61536 11.4615V0.384613H1.07689C0.846126 0.384613 0.615356 0.615382 0.615356 0.846152V11.6154C0.615356 17.5385 4.38459 19.6154 9.84613 19.6154C15.3077 19.6154 19.0769 17.5385 19.0769 11.6154V0.384613H15.5384C15.3077 0.384613 15.0769 0.538459 15.0769 0.846152Z" fill="white"/>
<path d="M66.5384 3.46154C66.8461 3.46154 66.9999 3.38461 67.0769 3.15384L68.0769 0.615382C68.1538 0.461536 68.0769 0.384613 67.923 0.384613H53.6153C52.3076 0.384613 51.7692 0.769228 51.7692 1.69231V18.1538C51.7692 18.9231 52.1538 19.3077 53.1538 19.3077H66.4615C66.7692 19.3077 66.923 19.2308 66.9999 19L67.9999 16.4615C68.0769 16.3077 67.9999 16.2308 67.8461 16.2308H55.6922V12.8462C55.6922 11.6923 56.3076 11.1538 58.0769 11.1538H63.3846C63.6922 11.1538 63.8461 11.0769 63.923 10.8462L64.923 8.38461C64.9999 8.23077 64.923 8.15384 64.7692 8.15384H55.7692V3.38461H66.5384V3.46154Z" fill="white"/>
<path fill-rule="evenodd" clip-rule="evenodd" d="M41.3846 9.30769C42.923 8.46154 43.5384 7 43.5384 5.15384C43.5384 0.999998 40.1538 0.384613 36.6153 0.384613H28.5384C27.2307 0.384613 26.6923 0.769228 26.6923 1.69231V18.1538C26.6923 18.9231 27.0769 19.3077 28.0769 19.3077H38C41.7692 19.3077 44.3846 17.8462 44.3846 14.0769C44.4615 11.7692 43.5384 9.84615 41.3846 9.30769ZM30.6923 3.38461H36.923C39 3.38461 39.6153 4.15384 39.6153 5.76923C39.6153 7.38461 39 8.15384 36.923 8.15384H30.6923V3.38461ZM30.6923 16.2308H37.6923C39.923 16.2308 40.5384 15.4615 40.5384 13.6923C40.5384 11.9231 39.923 11.0769 37.6923 11.0769H33.0769C31.3076 11.0769 30.6923 11.6154 30.6923 12.7692V16.2308Z" fill="white"/>
<path fill-rule="evenodd" clip-rule="evenodd" d="M88.6154 11.6923L92.8462 19C92.9231 19.0769 92.9231 19.3077 92.7692 19.3077H89.1538C88.8462 19.3077 88.7692 19.2308 88.6154 19L84.7692 12.0769H81.3077C79.5385 12.0769 78.9231 12.6154 78.9231 13.7692V19.3077H75.4615C75.2308 19.3077 75 19.0769 75 18.8462V1.69231C75 0.769228 75.5385 0.384613 76.8462 0.384613H84.9231C89.6154 0.384613 92.4615 1.61538 92.4615 6.23077C92.4615 9.76923 90.6923 11.1538 88.6154 11.6923ZM78.8462 9.15384H85.4615C87.9231 9.15384 88.4615 8.23077 88.4615 6.23077C88.4615 4.30769 87.9231 3.38461 85.4615 3.38461H78.8462V9.15384Z" fill="white"/>
</svg>
